<svg height="512" viewBox="0 0 64 64" width="512" xmlns="http://www.w3.org/2000/svg"><circle cx="40" cy="13" fill="#394d5c" r="10"/><path d="m45 45h-32a2 2 0 0 1 -2-2v-18a2 2 0 0 1 2-2h34a2 2 0 0 1 2 2v16z" fill="#cfdfe8"/><path d="m49 28h4v10h-4z" fill="#394d5c"/><path d="m61 43-8-5v-10l8-5z" fill="#7d8d9c"/><path d="m7 36-4 2v-10l4 2z" fill="#7d8d9c"/><path d="m7 30h4v6h-4z" fill="#394d5c"/><path d="m15 27h28v12h-28z" fill="#7d8d9c"/><path d="m18 30h2v2h-2z" fill="#fcf05a"/><path d="m18 34h2v2h-2z" fill="#fcf05a"/><path d="m27 27h16v8h-16z" fill="#f4f4e6"/><path d="m30 30h10v2h-10z" fill="#dd3e46"/><path d="m43 49h-22l2-4h18z" fill="#7d8d9c"/><path d="m24 49h16v4h-16z" fill="#cfdfe8"/><g fill="#394d5c"><path d="m30 53h4v8h-4z"/><path d="m30 53-9 8h-6l9-8z"/><path d="m34 53 9 8h6l-9-8z"/><path d="m3 50h10v4h-10z"/></g><path d="m17 53h-4v-2h3v-6h2v7a1 1 0 0 1 -1 1z" fill="#195c85"/><circle cx="20" cy="13" fill="#394d5c" r="10"/><circle cx="20" cy="13" fill="#e2e1cc" r="6"/><path d="m19 13h-2a3 3 0 0 1 3-3v2a1 1 0 0 0 -1 1z" fill="#32b1cc"/><circle cx="40" cy="13" fill="#e2e1cc" r="6"/><path d="m39 13h-2a3 3 0 0 1 3-3v2a1 1 0 0 0 -1 1z" fill="#32b1cc"/></svg>