<?xml version="1.0" encoding="iso-8859-1"?>
<!-- Generator: Adobe Illustrator 19.0.0, SVG Export Plug-In . SVG Version: 6.00 Build 0)  -->
<svg version="1.1" id="Capa_1" xmlns="http://www.w3.org/2000/svg" xmlns:xlink="http://www.w3.org/1999/xlink" x="0px" y="0px"
	 viewBox="0 0 512 512" style="enable-background:new 0 0 512 512;" xml:space="preserve">
<path style="fill:#FFB124;" d="M81.864,108.973H30.982c-5.206,0-9.426,4.22-9.426,9.426v28.24H91.29v-28.24
	C91.29,113.193,87.07,108.973,81.864,108.973z"/>
<path style="fill:#FF901E;" d="M81.864,108.973H52.932c0.161,1.263,0.254,2.547,0.254,3.854v33.812H91.29v-28.24
	C91.29,113.193,87.07,108.973,81.864,108.973z"/>
<path style="fill:#775146;" d="M484.586,137.532h-52.011c-6.727,0-13.046-3.222-16.996-8.667l-29.682-40.906
	c-4.794-6.607-12.463-10.518-20.626-10.518H225.209c-8.163,0-15.832,3.911-20.626,10.518l-29.682,40.907
	c-3.95,5.444-10.27,8.667-16.996,8.667H27.414C12.274,137.532,0,149.806,0,164.946v242.196c0,15.14,12.274,27.414,27.414,27.414
	h457.172c15.14,0,27.414-12.274,27.414-27.414V164.946C512,149.806,499.726,137.532,484.586,137.532z"/>
<path style="fill:#634038;" d="M484.586,137.532H446.27c15.14,0,27.414,12.274,27.414,27.414v242.196
	c0,15.14-12.274,27.414-27.414,27.414h38.316c15.14,0,27.414-12.274,27.414-27.414V164.946
	C512,149.806,499.726,137.532,484.586,137.532z"/>
<g>
	<path style="fill:#FF4C4C;" d="M484.586,137.532h-52.011c-6.727,0-13.046-3.222-16.996-8.667l-29.682-40.906
		c-4.794-6.607-12.463-10.518-20.626-10.518H225.21c-8.163,0-15.832,3.911-20.626,10.518l-29.682,40.907
		c-3.95,5.444-10.27,8.667-16.996,8.667H27.414C12.274,137.532,0,149.806,0,164.946v27.11h512v-27.11
		C512,149.806,499.726,137.532,484.586,137.532z"/>
	<path style="fill:#FF4C4C;" d="M0,382.171v24.972c0,15.14,12.274,27.414,27.414,27.414h457.172
		c15.14,0,27.414-12.274,27.414-27.414v-24.972H0z"/>
</g>
<g>
	<path style="fill:#F33939;" d="M484.586,137.532H446.27c15.14,0,27.414,12.274,27.414,27.414v27.11H512v-27.11
		C512,149.806,499.726,137.532,484.586,137.532z"/>
	<path style="fill:#F33939;" d="M473.684,407.143c0,15.14-12.274,27.414-27.414,27.414h38.316c15.14,0,27.414-12.274,27.414-27.414
		v-24.972h-38.316V407.143z"/>
</g>
<circle style="fill:#FFB124;" cx="293.72" cy="274.529" r="160.03"/>
<circle style="fill:#FFFCFD;" cx="293.72" cy="274.529" r="123.04"/>
<path style="fill:#E6E6E6;" d="M380.723,361.528c48.05-48.05,48.05-125.955,0-174.005L206.718,361.528
	C254.768,409.578,332.673,409.578,380.723,361.528z"/>
<circle style="fill:#21D8DE;" cx="293.72" cy="274.529" r="33.542"/>
<path style="fill:#AF8A83;" d="M79.505,137.532h-52.09C12.274,137.532,0,149.806,0,164.946v242.196
	c0,15.14,12.274,27.414,27.414,27.414h52.09c16.619,0,30.091-13.472,30.091-30.091V167.623
	C109.595,151.004,96.123,137.532,79.505,137.532z"/>
<path style="fill:#927167;" d="M79.505,137.532H41.4c16.619,0,30.09,13.472,30.09,30.091v236.843
	c0,16.619-13.472,30.091-30.09,30.091h38.104c16.619,0,30.091-13.472,30.091-30.091V167.623
	C109.595,151.004,96.123,137.532,79.505,137.532z"/>
<g>
</g>
<g>
</g>
<g>
</g>
<g>
</g>
<g>
</g>
<g>
</g>
<g>
</g>
<g>
</g>
<g>
</g>
<g>
</g>
<g>
</g>
<g>
</g>
<g>
</g>
<g>
</g>
<g>
</g>
</svg>
